<svg height="512" viewBox="0 0 58 59" width="512" xmlns="http://www.w3.org/2000/svg"><g id="065---Advisor-Compassion" fill="none" transform="translate(-1)"><path id="Shape" d="m43.0000176 52-.0000176 6.48c.0016391.1995199-.1114621.3822448-.2907699.4697641s-.3929427.0642727-.5492301-.0597641l-7.69-5.89z" fill="#ff5364"/><path id="Shape" d="m33 31c.0237648-.5567002.1106545-1.1089028.259-1.646.3984094-1.2963637 1.4416747-2.2926726 2.755-2.631l5.986-1.723h8l5.986 1.723c1.3133253.3383274 2.3565906 1.3346363 2.755 2.631.1495214.5436526.2364186 1.102613.259 1.666.0371413 1.0542985-.7858112 1.9398669-1.84 1.98h-11.16z" fill="#4482c3"/><path id="Shape" d="m27 31c-.0237648-.5567002-.1106545-1.1089028-.259-1.646-.3984094-1.2963637-1.4416747-2.2926726-2.755-2.631l-5.986-1.723h-8l-5.986 1.723c-1.31332534.3383274-2.35659064 1.3346363-2.755 2.631-.14952142.5436526-.23641863 1.102613-.259 1.666-.03714133 1.0542985.78581118 1.9398669 1.84 1.98h11.16z" fill="#955ba5"/><path id="Shape" d="m50 20.34v4.66s-.48 2-3.99 2-4.01-2-4.01-2v-4.66z" fill="#f9c795"/><path id="Shape" d="m55 14c-.5522847 0-1-.4477153-1-1v-4c0-3.237-3.494-7-8-7s-8 3.763-8 7v4c0 .5522847-.4477153 1-1 1s-1-.4477153-1-1v-4c0-4.248 4.276-9 10-9s10 4.752 10 9v4c0 .5522847-.4477153 1-1 1z" fill="#7f8284"/><path id="Rectangle-path" d="m36 11h4v6h-4z" fill="#547580"/><path id="Shape" d="m52 11v6c-.170656 1.1559036-.7487457 2.2127793-1.63 2.98-1.72 1.51-1.72 3.02-3.44 3.02h-1.86c-1.72 0-1.72-1.51-3.44-3.02-.8812543-.7672207-1.459344-1.8240964-1.63-2.98v-6c.0000001-3.31370843 2.6862916-5.99999982 6-5.99999982s5.9999999 2.68629139 6 5.99999982z" fill="#fdd7ad"/><path id="Shape" d="m54 11h2v6h-4v-4c0-1.1045695.8954305-2 2-2z" fill="#547580" transform="matrix(-1 0 0 -1 108 28)"/><path id="Shape" d="m39 22h-1c-1.1045695 0-2-.8954305-2-2v-4c0-.5522847.4477153-1 1-1s1 .4477153 1 1v4h1c.5522847 0 1 .4477153 1 1s-.4477153 1-1 1z" fill="#464f5d"/><rect id="Rectangle-path" fill="#fb7b76" height="22" rx="2.07" width="32" x="14" y="31"/><path id="Shape" d="m38 39.176c.0013261 1.1028271-.432813 2.1615802-1.208 2.946l-6.082 6.158c-.187882.1902386-.4441232.2973139-.7115.2973139s-.523618-.1070753-.7115-.2973139l-5.921-6c-2.673-2.706-.982-7.278 2.748-7.278 1.967 0 2.868 1.18 3.884 2.209l.975-.986c1.1812293-1.1860835 2.9634436-1.5379603 4.5068188-.8898174 1.5433753.648143 2.5399769 2.1669881 2.5201812 3.8408174z" fill="#fff"/><path id="Shape" d="m18 20.34v4.66s-.48 2-3.99 2-4.01-2-4.01-2v-4.66z" fill="#f9c795"/><path id="Shape" d="m6.65 12.685c-.91-2.2-1.258-7 1.7-7.3.18724489-.02215539.34980792-.139352.43-.31.327-.631 1.44-2.075 5.15-2.075 0 0 6.41 0 7.58 3.56.6428684 1.99747773.6041768 4.1518937-.11 6.125z" fill="#805333"/><path id="Shape" d="m22 14.5c0 1.607-1.161 2.7-2.32 2.47-.0345848 1.1341845-.5035548 2.2117415-1.31 3.01-1.72 1.51-1.72 3.02-3.44 3.02h-1.86c-1.72 0-1.72-1.51-3.44-3.02-.80644519-.7982585-1.27541517-1.8758155-1.31-3.01-1.162.23-2.32-.863-2.32-2.47-.1239239-1.2384994.7645051-2.3490356 2-2.5.03911927-.9762866.36617561-1.9191831.94-2.71.51-.687.844-1.136 1.67-1.2 1.491-.106 5.29-.106 6.78 0 .825.064 1.154.5 1.67 1.2.5738244.7908169.9008807 1.7337134.94 2.71 1.2324358.1564335 2.1179166 1.2632846 2 2.5z" fill="#fdd7ad"/></g></svg>